<svg width="20" height="20" viewBox="0 0 20 20" fill="none" xmlns="http://www.w3.org/2000/svg">
<g id="globe">
<mask id="mask0_59_24" style="mask-type:alpha" maskUnits="userSpaceOnUse" x="0" y="0" width="20" height="20">
<rect id="Bounding box" width="20" height="20" fill="#D9D9D9"/>
</mask>
<g mask="url(#mask0_59_24)">
<path id="globe_2" d="M9.99984 18.3332C8.84706 18.3332 7.76373 18.1144 6.74984 17.6769C5.73595 17.2394 4.854 16.6457 4.104 15.8957C3.354 15.1457 2.76025 14.2637 2.32275 13.2498C1.88525 12.2359 1.6665 11.1526 1.6665 9.99984C1.6665 8.84706 1.88525 7.76373 2.32275 6.74984C2.76025 5.73595 3.354 4.854 4.104 4.104C4.854 3.354 5.73595 2.76025 6.74984 2.32275C7.76373 1.88525 8.84706 1.6665 9.99984 1.6665C11.1526 1.6665 12.2359 1.88525 13.2498 2.32275C14.2637 2.76025 15.1457 3.354 15.8957 4.104C16.6457 4.854 17.2394 5.73595 17.6769 6.74984C18.1144 7.76373 18.3332 8.84706 18.3332 9.99984C18.3332 11.1526 18.1144 12.2359 17.6769 13.2498C17.2394 14.2637 16.6457 15.1457 15.8957 15.8957C15.1457 16.6457 14.2637 17.2394 13.2498 17.6769C12.2359 18.1144 11.1526 18.3332 9.99984 18.3332ZM9.99984 16.6665C11.8609 16.6665 13.4373 16.0207 14.729 14.729C16.0207 13.4373 16.6665 11.8609 16.6665 9.99984C16.6665 9.90261 16.663 9.80192 16.6561 9.69775C16.6491 9.59359 16.6457 9.50678 16.6457 9.43734C16.5762 9.84011 16.3887 10.1734 16.0832 10.4373C15.7776 10.7012 15.4165 10.8332 14.9998 10.8332H13.3332C12.8748 10.8332 12.4825 10.67 12.1561 10.3436C11.8297 10.0172 11.6665 9.62484 11.6665 9.1665V8.33317H8.33317V6.6665C8.33317 6.20817 8.49637 5.81581 8.82275 5.48942C9.14914 5.16303 9.5415 4.99984 9.99984 4.99984H10.8332C10.8332 4.68039 10.92 4.39914 11.0936 4.15609C11.2672 3.91303 11.479 3.71512 11.729 3.56234C11.4512 3.49289 11.17 3.43734 10.8853 3.39567C10.6005 3.354 10.3054 3.33317 9.99984 3.33317C8.13873 3.33317 6.56234 3.979 5.27067 5.27067C3.979 6.56234 3.33317 8.13873 3.33317 9.99984H7.49984C8.4165 9.99984 9.20123 10.3262 9.854 10.979C10.5068 11.6318 10.8332 12.4165 10.8332 13.3332V14.1665H8.33317V16.4582C8.61095 16.5276 8.88525 16.5797 9.15609 16.6144C9.42692 16.6491 9.70817 16.6665 9.99984 16.6665Z" fill="#CCCCCC"/>
</g>
</g>
</svg>
